<?xml version="1.0" encoding="utf-8"?>
<!-- Generator: Adobe Illustrator 22.1.0, SVG Export Plug-In . SVG Version: 6.00 Build 0)  -->
<svg version="1.1" id="Слой_1" xmlns="http://www.w3.org/2000/svg" xmlns:xlink="http://www.w3.org/1999/xlink" x="0px" y="0px"
	 width="155.8px" height="62px" viewBox="0 0 155.8 62" style="enable-background:new 0 0 155.8 62;" xml:space="preserve">
<style type="text/css">
	.st0{opacity:0.5;fill:none;stroke:#FFFFFF;enable-background:new    ;}
</style>
<path class="st0" d="M-32.7-1l-45.3,64 M-23-1l-45.3,64 M-13.2-1l-45.3,64 M-3.4-1l-45.3,64 M6.3-1L-39,63 M16.1-1l-45.3,64 M25.8-1
	l-45.3,64 M35.6-1L-9.8,63 M45.3-1L0,63 M55.1-1L9.8,63 M64.9-1L19.5,63 M74.6-1L29.3,63 M84.4-1L39,63 M94.1-1L48.8,63 M103.9-1
	L58.6,63 M113.3-1L68,63 M123.1-1L77.7,63 M132.8-1L87.5,63 M142.6-1L97.2,63 M152.3-1L107,63 M162.1-1l-45.4,64 M171.9-1l-45.3,64
	 M181.6-1l-45.3,64 M191.4-1L146,63 M201.1-1l-45.3,64 M210.9-1l-45.3,64 M220.7-1l-45.4,64 M230.4-1l-45.3,64 M240.2-1l-45.3,64
	 M249.9-1l-45.4,64"/>
</svg>
